<svg width="14" height="14" viewBox="0 0 14 14" fill="none" xmlns="http://www.w3.org/2000/svg">
<g clip-path="url(#clip0)">
<path d="M13.8425 10.1636L11.2175 7.97613C11.0871 7.86676 10.9051 7.84488 10.752 7.91576C10.598 7.98838 10.5 8.14238 10.5 8.31213V9.62463H9.76762C9.16037 9.62463 8.60563 9.31663 8.28362 8.80213L5.45038 4.26963C4.80725 3.23976 3.69775 2.62463 2.48237 2.62463H0V4.37463H2.48237C3.08962 4.37463 3.64438 4.68263 3.96637 5.19713L6.79962 9.72963C7.44362 10.7595 8.55313 11.3746 9.76762 11.3746H10.5V12.6871C10.5 12.8569 10.598 13.0109 10.752 13.0835C10.8106 13.1106 10.8745 13.1246 10.9375 13.1246C11.0381 13.1246 11.1379 13.0905 11.2175 13.0231L13.8425 10.8356C13.9431 10.7525 14 10.6291 14 10.4996C14 10.3701 13.9431 10.2468 13.8425 10.1636Z" fill="#C4C4C4"/>
<path d="M13.8426 3.16372L11.2176 0.976216C11.0872 0.867716 10.9052 0.844966 10.7521 0.916716C10.5981 0.987591 10.5001 1.14247 10.5001 1.31222V2.62472H9.76773C8.55236 2.62472 7.44286 3.23984 6.79973 4.26972L6.64136 4.52347L7.67298 6.17459L8.28373 5.19722C8.60573 4.68272 9.16048 4.37472 9.76773 4.37472H10.5001V5.68722C10.5001 5.85697 10.5981 6.01184 10.7521 6.08359C10.8107 6.11072 10.8746 6.12472 10.9376 6.12472C11.0382 6.12472 11.138 6.08972 11.2176 6.02322L13.8426 3.83572C13.9432 3.75259 14.0001 3.62922 14.0001 3.49972C14.0001 3.37022 13.9432 3.24684 13.8426 3.16372Z" fill="#C4C4C4"/>
<path d="M4.57713 7.82471L3.96725 8.80208C3.64525 9.31658 3.08962 9.62458 2.48237 9.62458H0V11.3746H2.48237C3.69687 11.3746 4.80638 10.7595 5.45038 9.72958L5.60875 9.47583L4.57713 7.82471Z" fill="#C4C4C4"/>
</g>
<defs>
<clipPath id="clip0">
<rect width="14" height="14" fill="white"/>
</clipPath>
</defs>
</svg>
