<svg width="14" height="14" viewBox="0 0 14 14" fill="none" xmlns="http://www.w3.org/2000/svg">
<path d="M13.4533 3.34686C13.0887 2.98231 12.6489 2.79998 12.1336 2.79998H10.5002L10.1284 1.80837C10.036 1.57021 9.86716 1.3648 9.62154 1.19215C9.37603 1.01958 9.12449 0.933228 8.86682 0.933228H5.13339C4.87574 0.933228 4.62415 1.01958 4.37864 1.19215C4.13312 1.3648 3.96426 1.57021 3.87188 1.80837L3.50002 2.79998H1.86668C1.35131 2.79998 0.911463 2.98231 0.546832 3.34686C0.182277 3.71144 0 4.15134 0 4.66665V11.2001C0 11.7154 0.182277 12.1553 0.546832 12.5198C0.911463 12.8845 1.35133 13.0668 1.86668 13.0668H12.1334C12.6487 13.0668 13.0885 12.8845 13.4531 12.5198C13.8177 12.1553 14 11.7154 14 11.2001V4.66665C14.0001 4.15134 13.8178 3.71144 13.4533 3.34686ZM9.30786 10.2413C8.66863 10.8805 7.89942 11.2002 7.00004 11.2002C6.10066 11.2002 5.3315 10.8805 4.69221 10.2413C4.05293 9.60211 3.73335 8.83273 3.73335 7.93355C3.73335 7.03409 4.05303 6.26496 4.69221 5.62567C5.33142 4.98639 6.10068 4.66681 7.00004 4.66681C7.8994 4.66681 8.66863 4.98646 9.30786 5.62567C9.94712 6.26488 10.2668 7.03409 10.2668 7.93355C10.2668 8.83273 9.94715 9.60203 9.30786 10.2413Z" fill="#344E9F"/>
<path d="M7.00011 5.83337C6.42161 5.83337 5.92698 6.03877 5.5162 6.4496C5.10542 6.86038 4.90002 7.35494 4.90002 7.93357C4.90002 8.51197 5.10542 9.0066 5.5162 9.41738C5.92698 9.82809 6.42159 10.0335 7.00011 10.0335C7.57854 10.0335 8.07322 9.82809 8.484 9.41738C8.89479 9.0066 9.1002 8.51199 9.1002 7.93357C9.1002 7.35496 8.89479 6.86041 8.484 6.4496C8.07325 6.03879 7.57854 5.83337 7.00011 5.83337Z" fill="#344E9F"/>
</svg>
