<svg width="19" height="19" viewBox="0 0 19 19" fill="none" xmlns="http://www.w3.org/2000/svg">
<path d="M18.1503 17.2106H2.05727V1.11753C2.05727 0.760942 1.7782 0.481873 1.42161 0.481873C1.06502 0.481873 0.78595 0.760942 0.78595 1.11753V17.8462C0.78595 18.2028 1.06502 18.4819 1.42161 18.4819H18.1503C18.5069 18.4819 18.7859 18.2028 18.7859 17.8462C18.7859 17.4896 18.5069 17.2106 18.1503 17.2106Z" fill="#344E9F"/>
<path d="M8.21233 14.761V5.61369C8.21233 5.2571 7.93326 4.97803 7.57667 4.97803C7.22008 4.97803 6.94101 5.2571 6.94101 5.61369V14.761C6.94101 15.1176 7.22008 15.3966 7.57667 15.3966C7.93326 15.3966 8.21233 15.1176 8.21233 14.761Z" fill="#344E9F"/>
<path d="M5.14253 14.761V5.61369C5.14253 5.2571 4.86346 4.97803 4.50688 4.97803C4.15029 4.97803 3.87122 5.2571 3.87122 5.61369V14.761C3.87122 15.1176 4.15029 15.3966 4.50688 15.3966C4.86346 15.3966 5.14253 15.1176 5.14253 14.761Z" fill="#344E9F"/>
<path d="M14.3518 14.761V5.61369C14.3518 5.2571 14.0728 4.97803 13.7162 4.97803C13.3596 4.97803 13.0805 5.2571 13.0805 5.61369V14.761C13.0805 15.1176 13.3596 15.3966 13.7162 15.3966C14.0728 15.3966 14.3518 15.1176 14.3518 14.761Z" fill="#344E9F"/>
<path d="M17.4216 14.7609V10.1873C17.4216 9.83071 17.1425 9.55164 16.786 9.55164C16.4294 9.55164 16.1503 9.83071 16.1503 10.1873V14.7609C16.1503 15.1175 16.4294 15.3966 16.786 15.3966C17.1425 15.3966 17.4216 15.1175 17.4216 14.7609Z" fill="#344E9F"/>
<path d="M11.2821 14.7609V10.1873C11.2821 9.83071 11.003 9.55164 10.6464 9.55164C10.2898 9.55164 10.0107 9.83071 10.0107 10.1873V14.7609C10.0107 15.1175 10.2898 15.3966 10.6464 15.3966C11.003 15.3966 11.2821 15.1175 11.2821 14.7609Z" fill="#344E9F"/>
</svg>
