<svg width="17" height="21" viewBox="0 0 17 21" fill="none" xmlns="http://www.w3.org/2000/svg">
<path d="M12.8413 0.490723H5.04765C4.68257 0.490723 4.39686 0.776437 4.39686 1.14152V2.04628H1.52384C1.15876 2.04628 0.873047 2.33199 0.873047 2.69707V19.8399C0.873047 20.205 1.15876 20.4907 1.52384 20.4907H16.0635C16.4286 20.4907 16.7143 20.205 16.7143 19.8399V2.69707C16.7143 2.33199 16.4286 2.04628 16.0635 2.04628H13.4921V1.14152C13.4921 0.776437 13.2064 0.490723 12.8413 0.490723ZM5.69844 2.69707V1.79231H12.1905V2.69707V3.83993H5.69844V2.69707ZM15.4127 3.34787V19.1891H2.17463V3.34787H4.39686V4.49072C4.39686 4.8558 4.68257 5.14152 5.04765 5.14152H12.8413C13.2064 5.14152 13.4921 4.8558 13.4921 4.49072V3.34787H15.4127Z" fill="#344E9F"/>
<path d="M13.635 11.7606H4.254C3.88893 11.7606 3.60321 12.0463 3.60321 12.4114C3.60321 12.7764 3.88893 13.0621 4.254 13.0621H13.635C14 13.0621 14.2858 12.7764 14.2858 12.4114C14.2858 12.0463 14 11.7606 13.635 11.7606Z" fill="#344E9F"/>
<path d="M8.95242 14.9034H4.254C3.88893 14.9034 3.60321 15.1892 3.60321 15.5542C3.60321 15.9193 3.88893 16.205 4.254 16.205H8.93654C9.30162 16.205 9.58734 15.9193 9.58734 15.5542C9.58734 15.1892 9.30162 14.9034 8.95242 14.9034Z" fill="#344E9F"/>
<path d="M3.60321 9.25263C3.60321 9.61771 3.88893 9.90342 4.254 9.90342H13.635C14 9.90342 14.2858 9.61771 14.2858 9.25263C14.2858 8.88755 14 8.60184 13.635 8.60184H4.254C3.88893 8.60184 3.60321 8.90342 3.60321 9.25263Z" fill="#344E9F"/>
</svg>
